<svg class="ldi-5j344k" width="148px"  height="148px"  xmlns="http://www.w3.org/2000/svg" xmlns:xlink="http://www.w3.org/1999/xlink" viewBox="0 0 100 100" preserveAspectRatio="xMidYMid" style="background: none;"><!--?xml version="1.0" encoding="utf-8"?--><!--Generator: Adobe Illustrator 21.0.0, SVG Export Plug-In . SVG Version: 6.00 Build 0)--><svg version="1.1" id="Layer_1" xmlns="http://www.w3.org/2000/svg" xmlns:xlink="http://www.w3.org/1999/xlink" x="0px" y="0px" viewBox="0 0 100 100" style="transform-origin: 50px 50px 0px;" xml:space="preserve"><g style="transform-origin: 50px 50px 0px;"><g style="transform-origin: 50px 50px 0px; transform: scale(0.6);"><g style="transform-origin: 50px 50px 0px;"><g><style type="text/css" class="ld ld-fade" style="transform-origin: 50px 50px 0px; animation-duration: 1s; animation-delay: -1s; animation-direction: normal;">.st0{fill:#3986C7;} .st1{fill:#91B84A;} .st2{fill:#3750A3;} .st3{fill:#FFFFFF;} .st4{fill:#E55B28;} .st5{fill:#F07D21;} .st6{fill:#143D69;} .st7{fill:#201F20;} .st8{fill:#000101;} .st9{fill:#B31F24;} .st10{fill:#287DC1;} .st11{fill:#DE453C;} .st12{fill:#814D9F;} .st13{fill:#4D88C7;} .st14{fill:#B02E27;} .st15{fill:#2CA1DB;} .st16{fill:#6ACDEC;} .st17{fill:#6E0C0E;} .st18{fill:#E8ECEE;} .st19{fill:#8A9FAC;} .st20{fill:#F04A22;} .st21{fill:#FEFFFF;} .st22{fill:#6D4D9F;} .st23{fill:#D83B2A;} .st24{fill:#31A65F;} .st25{fill:#F09A3E;} .st26{fill:#CC2226;} .st27{fill:#1E98D1;} .st28{fill:#ED2123;} .st29{fill:#2176AF;} .st30{fill:#202C5F;} .st31{fill:#88BC4E;} .st32{fill:#50A952;} .st33{fill:#211D1E;} .st34{fill:#5E8A3E;} .st35{fill:#BADDE7;} .st36{fill:#D9232E;} .st37{fill:#F59639;} .st38{fill:#F05422;} .st39{fill:#306BB1;} .st40{fill:#006463;} .st41{fill:#F27B2B;} .st42{fill:#3D6AB3;} .st43{fill:#D83E2F;} .st44{fill:#F15B45;} .st45{fill:#E92F46;} .st46{fill:#EF4822;} .st47{fill:#212121;} .st48{fill:#ED642A;} .st49{fill:#221D1E;} .st50{fill:#164F8F;} .st51{fill:#5799D3;} .st52{fill:#CBD35F;} .st53{fill:#1B95BE;} .st54{fill:#F9B797;} .st55{fill:#F05222;} .st56{fill:#7E98C2;} .st57{fill:#34A3D4;} .st58{fill:#0F100F;} .st59{fill:#E66D26;} .st60{fill:#F5A22A;} .st61{fill:#D93226;} .st62{fill:#2694CF;} .st63{fill:#45A5D8;} .st64{fill:#DB2A2A;} .st65{fill:#C41F2D;} .st66{fill:#D44828;} .st67{fill:#375F98;} .st68{fill:#69BF72;} .st69{fill:#2E96D3;} .st70{fill:#032C48;} .st71{fill:#ED6855;} .st72{fill:#25397A;} .st73{fill:#253879;} .st74{fill:#2194CE;} .st75{fill:#222A61;} .st76{fill:#449EBB;} .st77{fill:#DD503E;} .st78{fill:#1CABA4;} .st79{fill:#6D5FAA;} .st80{fill:#D11F2C;} .st81{fill:#EABD1F;} .st82{fill:#3469A8;} .st83{fill:#18A398;} .st84{fill:#1E1E1E;} .st85{fill:url(#SVGID_1_);} .st86{fill:#C57B2E;} .st87{fill:url(#SVGID_2_);} .st88{fill:url(#SVGID_3_);} .st89{fill:url(#SVGID_4_);} .st90{fill:#EFB81F;} .st91{fill:#E04355;} .st92{fill:#D05531;} .st93{fill:#189AB7;} .st94{fill:#8686C1;} .st95{fill:#B91F24;} .st96{fill:#71A341;} .st97{fill:#BC1E3E;} .st98{fill:#F2B13C;} .st99{fill:#44B9C7;} .st100{fill:#C36493;} .st101{fill:#351A1C;} .st102{fill:#1E9145;} .st103{fill:#A7A9AC;} .st104{fill:#818285;} .st105{fill:#59585A;} .st106{fill:#D1D2D4;} .st107{fill:#221E1F;} .st108{fill:#942424;} .st109{fill:#610F16;} .st110{fill:#2B1415;} .st111{fill:#DA302F;} .st112{fill:#47BC98;} .st113{fill:#414549;} .st114{fill:#F1F2F4;} .st115{fill:#D4D5D7;} .st116{fill:#27A4DD;} .st117{fill:#E4AF37;} .st118{fill:#62BA9C;} .st119{fill:#D32657;} .st120{fill:#331332;} .st121{fill:#CA2829;} .st122{fill:#8ACCD7;} .st123{fill:#298771;} .st124{fill:#7F983E;} .st125{fill:#502733;} .st126{fill:#8F4256;} .st127{fill:#DA6379;} .st128{fill:#F2EB41;} .st129{fill:#030404;} .st130{fill:#388F62;} .st131{fill:none;} .st132{fill:#083F2E;} .st133{fill:#51BA61;} .st134{fill:#544E93;} .st135{fill:#3869AB;} .st136{fill:#4F9BCE;} .st137{fill:#92D2EB;} .st138{fill:#20518F;} .st139{fill:#BCBBBB;} .st140{fill:#EB7F2C;} .st141{fill:#626262;} .st142{fill:#313131;} .st143{fill:#E48C30;} .st144{fill:#309DCA;} .st145{fill:#E8D037;} .st146{fill:#D7472D;} .st147{fill:#626BB2;} .st148{fill:#30BEBF;} .st149{fill:#DF4B29;} .st150{fill:#0A0A09;} .st151{fill:#242424;} .st152{fill:#E0E0E0;} .st153{fill:#4C4C4C;} .st154{fill:#F47B1F;} .st155{fill:#757475;} .st156{fill:#F49A49;} .st157{fill:#D1393D;} .st158{fill:#89BE48;} .st159{fill:#35A1D2;} .st160{fill:#166FAF;} .st161{fill:#ED912A;} .st162{fill:#F6EC30;} .st163{fill:#DF2928;} .st164{fill:#C13648;} .st165{fill:#EFE9AD;} .st166{fill:#E3CAAC;} .st167{fill:#646B67;} .st168{fill:#E1C7A2;} .st169{fill:#C6B299;} .st170{fill:#E7D199;} .st171{fill:#2C3136;} .st172{fill:#EBF4F9;} .st173{opacity:0.8;} .st174{opacity:0.75;fill:#E7D199;enable-background:new ;}</style><g class="ld ld-fade" style="transform-origin: 50px 50px 0px; animation-duration: 1s; animation-delay: -0.96s; animation-direction: normal;"><path class="st96" d="M33.814,32.525c2.397,0.15,8.99-0.05,10.239-5.044c-2.447-2.697-6.942-5.843-14.634-9.739l0.135,0.05 c5.993,1.998,11.397,4.695,15.922,8.391c5.319-2.497,1.648-8.74-0.939-11.187c-0.135,0.649-0.285,1.099-0.45,1.199 c-0.849-0.899-1.538-1.798-2.627-2.697c0,0.499,0.26,1.099-0.39,1.498c-0.584-0.799-1.368-1.498-2.417-2.098 c0.499,0.849,0.085,1.099-0.185,1.498c-0.799-0.749-1.548-1.448-2.997-1.998c0.4,0.499,0.999,0.999,0.4,1.548 c-0.799-0.499-1.648-0.999-3.596-1.398c0.45,0.499,1.349,0.999,0.799,1.498c-1.054-0.405-2.203-0.704-3.451-0.854 c0.599,0.499,1.139,0.959,0.639,1.348c-1.149-0.4-2.687-0.849-4.185-0.449l0.949,0.949c0.1,0.125-2.198,0.1-3.736,0.115 c0.549,0.749,1.124,1.498,1.448,2.847c-0.15,0.15-0.899,0.05-1.613,0c0.749,1.498,1.998,1.898,2.297,2.547 c-0.449,0.32-1.049,0.25-1.748,0c0.549,1.049,1.648,1.798,2.497,2.697c-0.25,0.15-0.599,0.25-1.548,0.125 c0.799,0.864,1.748,1.648,2.897,2.347c-0.2,0.235-0.899,0.23-1.598,0.25c1.049,1.014,2.397,1.548,3.646,2.212 c-0.649,0.45-1.099,0.35-1.548,0.35c0.849,0.749,2.397,1.099,3.796,1.548c-0.3,0.45-0.549,0.549-1.149,0.649 c1.498,0.849,3.596,0.449,4.195,0.899C34.713,32.025,34.314,32.325,33.814,32.525z" fill="rgb(113, 163, 65)" stroke="rgb(248, 178, 106)" style="fill: rgb(113, 163, 65); stroke: rgb(248, 178, 106);"></path></g><g class="ld ld-fade" style="transform-origin: 50px 50px 0px; animation-duration: 1s; animation-delay: -0.92s; animation-direction: normal;"><path class="st97" d="M40.047,34.622l-0.005-0.05c-7.117-1.149-13.045,2.997-12.806,10.638 C27.471,48.157,42.669,35.072,40.047,34.622z" fill="rgb(188, 30, 62)" stroke="rgb(255, 255, 255)" style="fill: rgb(188, 30, 62); stroke: rgb(255, 255, 255);"></path></g><g class="ld ld-fade" style="transform-origin: 50px 50px 0px; animation-duration: 1s; animation-delay: -0.88s; animation-direction: normal;"><path class="st97" d="M26.053,48.407c-6.842,3.846-5.659,12.436-1.963,15.383v-0.05C27.446,65.238,30.183,47.308,26.053,48.407z" fill="rgb(188, 30, 62)" stroke="rgb(255, 255, 255)" style="fill: rgb(188, 30, 62); stroke: rgb(255, 255, 255);"></path></g><g class="ld ld-fade" style="transform-origin: 50px 50px 0px; animation-duration: 1s; animation-delay: -0.84s; animation-direction: normal;"><path class="st97" d="M41.94,37.774c-0.015,2.267,3.356,4.585,8.366,4.645c5.144,0.035,8.391-1.858,8.44-4.195 c0.05-2.647-4.645-5.464-8.391-5.424h-0.075C46.025,32.689,41.94,35.906,41.94,37.774z" fill="rgb(188, 30, 62)" stroke="rgb(255, 255, 255)" style="fill: rgb(188, 30, 62); stroke: rgb(255, 255, 255);"></path></g><g class="ld ld-fade" style="transform-origin: 50px 50px 0px; animation-duration: 1s; animation-delay: -0.8s; animation-direction: normal;"><path class="st97" d="M59.725,34.822c-2.622,0.449,12.576,13.535,12.811,10.588C72.775,37.819,66.842,33.673,59.725,34.822z" fill="rgb(188, 30, 62)" stroke="rgb(255, 255, 255)" style="fill: rgb(188, 30, 62); stroke: rgb(255, 255, 255);"></path></g><g class="ld ld-fade" style="transform-origin: 50px 50px 0px; animation-duration: 1s; animation-delay: -0.76s; animation-direction: normal;"><path class="st96" d="M54.341,26.382c4.232-3.432,9.311-6.015,14.892-7.974c0.388-0.204,0.779-0.408,1.185-0.616l-0.145,0.25 c-0.351,0.117-0.693,0.245-1.04,0.366c-6.969,3.659-11.121,6.618-13.449,9.173c1.259,4.994,7.816,5.194,10.209,5.044 c-0.489-0.2-0.899-0.499-1.049-0.899c0.599-0.4,2.737-0.05,4.225-0.849c-0.569-0.1-0.839-0.2-1.099-0.649 c1.398-0.45,2.917-0.799,3.806-1.548c-0.479,0-0.929,0.1-1.558-0.3c1.259-0.649,2.597-1.199,3.646-2.198 c-0.649,0-1.348,0-1.548-0.25c1.149-0.699,2.118-1.448,2.922-2.347c-0.909,0.15-1.299,0.05-1.513-0.1 c0.869-0.849,1.973-1.598,2.497-2.697c-0.674,0.25-1.299,0.3-1.738,0c0.3-0.649,1.563-1.049,2.297-2.597 c-0.714,0.1-1.473,0.15-1.623,0c0.33-1.299,0.899-2.048,1.448-2.847c-1.518,0-3.831,0-3.721-0.1l0.939-0.949 c-1.488-0.4-3.012,0.05-4.115,0.4c-0.499-0.35,0-0.849,0.614-1.349c-1.299,0.2-2.447,0.45-3.446,0.849 c-0.549-0.499,0.35-0.949,0.799-1.448c-1.998,0.4-2.797,0.899-3.646,1.398c-0.599-0.549-0.05-1.049,0.35-1.498 c-1.498,0.549-2.247,1.249-3.047,1.898c-0.3-0.35-0.699-0.599-0.2-1.498c-1.049,0.599-1.848,1.299-2.447,2.098 c-0.649-0.449-0.4-0.999-0.4-1.498c-1.099,0.899-1.798,1.798-2.647,2.697c-0.2-0.1-0.35-0.499-0.449-1.149 C52.693,17.691,48.997,23.934,54.341,26.382z" fill="rgb(113, 163, 65)" stroke="rgb(248, 178, 106)" style="fill: rgb(113, 163, 65); stroke: rgb(248, 178, 106);"></path></g><g class="ld ld-fade" style="transform-origin: 50px 50px 0px; animation-duration: 1s; animation-delay: -0.72s; animation-direction: normal;"><path class="st97" d="M36.846,68.794c-3.027-3.466-6.962-5.529-9.504-3.995c-1.698,1.269-2.018,5.614,0.41,9.889 c3.596,5.084,8.655,5.594,10.738,4.355c2.198-1.623,0.999-7.122-1.648-10.253L36.846,68.794z" fill="rgb(188, 30, 62)" stroke="rgb(255, 255, 255)" style="fill: rgb(188, 30, 62); stroke: rgb(255, 255, 255);"></path></g><g class="ld ld-fade" style="transform-origin: 50px 50px 0px; animation-duration: 1s; animation-delay: -0.68s; animation-direction: normal;"><path class="st97" d="M73.749,48.207v-0.05c-4.13-1.099-1.398,16.831,1.963,15.383C79.408,60.643,80.596,52.053,73.749,48.207z" fill="rgb(188, 30, 62)" stroke="rgb(255, 255, 255)" style="fill: rgb(188, 30, 62); stroke: rgb(255, 255, 255);"></path></g><g class="ld ld-fade" style="transform-origin: 50px 50px 0px; animation-duration: 1s; animation-delay: -0.64s; animation-direction: normal;"><path class="st97" d="M63.701,67.835v-0.04c-2.857,3.296-4.445,9.299-2.362,11.237c1.988,1.498,7.342,1.299,11.287-4.105 c2.867-3.596,1.898-9.639,0.265-11.237C70.458,61.842,66.967,64.239,63.701,67.835z" fill="rgb(188, 30, 62)" stroke="rgb(255, 255, 255)" style="fill: rgb(188, 30, 62); stroke: rgb(255, 255, 255);"></path></g><g class="ld ld-fade" style="transform-origin: 50px 50px 0px; animation-duration: 1s; animation-delay: -0.6s; animation-direction: normal;"><path class="st97" d="M66.243,59.994c3.821-2.447,4.51-8.041,1.538-12.486c-2.972-4.445-8.48-6.043-12.306-3.546v-0.05 c-3.821,2.497-4.51,8.091-1.538,12.486C56.908,60.793,62.417,62.441,66.243,59.994z" fill="rgb(188, 30, 62)" stroke="rgb(255, 255, 255)" style="fill: rgb(188, 30, 62); stroke: rgb(255, 255, 255);"></path></g><g class="ld ld-fade" style="transform-origin: 50px 50px 0px; animation-duration: 1s; animation-delay: -0.56s; animation-direction: normal;"><path class="st97" d="M46.7,56.897c2.947-4.395,2.247-9.989-1.548-12.486l0.005-0.05c-3.821-2.447-9.33-0.849-12.301,3.546 c-2.972,4.445-2.282,10.039,1.538,12.536C38.214,62.94,43.723,61.342,46.7,56.897z" fill="rgb(188, 30, 62)" stroke="rgb(255, 255, 255)" style="fill: rgb(188, 30, 62); stroke: rgb(255, 255, 255);"></path></g><g class="ld ld-fade" style="transform-origin: 50px 50px 0px; animation-duration: 1s; animation-delay: -0.52s; animation-direction: normal;"><path class="st97" d="M50.45,59.894c-5.094,0.05-9.205,3.796-9.18,8.44v0.1c0.03,4.645,4.18,8.391,9.275,8.341 c5.094,0,9.19-3.796,9.14-8.391v-0.1l0.035-0.05C59.69,63.59,55.545,59.844,50.45,59.894z" fill="rgb(188, 30, 62)" stroke="rgb(255, 255, 255)" style="fill: rgb(188, 30, 62); stroke: rgb(255, 255, 255);"></path></g><g class="ld ld-fade" style="transform-origin: 50px 50px 0px; animation-duration: 1s; animation-delay: -0.48s; animation-direction: normal;"><path class="st97" d="M50.54,79.322l-0.01-0.04c-3.676-0.09-9.324,1.458-9.255,3.436c-0.06,1.348,4.435,5.244,9.015,5.044 c4.425,0.1,9-3.796,8.94-5.494C59.216,80.521,54.236,79.172,50.54,79.322z" fill="rgb(188, 30, 62)" stroke="rgb(255, 255, 255)" style="fill: rgb(188, 30, 62); stroke: rgb(255, 255, 255);"></path></g><g class="ld ld-fade" style="transform-origin: 50px 50px 0px; animation-duration: 1s; animation-delay: -0.44s; animation-direction: normal;"><path class="st97" d="M70.418,17.791c-0.405,0.208-0.797,0.413-1.185,0.616c0.347-0.122,0.689-0.249,1.04-0.366L70.418,17.791z" fill="rgb(188, 30, 62)" stroke="rgb(255, 255, 255)" style="fill: rgb(188, 30, 62); stroke: rgb(255, 255, 255);"></path></g><g class="ld ld-fade" style="transform-origin: 50px 50px 0px; animation-duration: 1s; animation-delay: -0.4s; animation-direction: normal;"><path d="M76.326,46.399L75.727,45.4c0-7.242-3.346-10.189-7.292-12.436c1.199-0.3,2.447-0.549,2.747-2.048 c2.048-0.499,2.447-1.448,2.647-2.447c0.499-0.35,2.297-1.348,2.098-3.047c0.999-0.699,1.548-1.548,1.249-2.797 c1.099-1.199,1.398-2.148,0.899-3.047c1.289-1.598,0.714-2.397,0.165-3.246c0.964-1.748,0.115-3.596-2.582-3.296 c-1.074-1.548-3.411-1.199-3.771-1.199c-0.405-0.499-0.934-0.899-2.582-0.699c-1.064-0.949-2.257-0.799-3.486-0.3 c-1.453-1.099-2.422-0.2-3.521,0.15c-1.768-0.549-2.168,0.2-3.037,0.549c-1.923-0.4-2.507,0.449-3.431,1.398l-1.074-0.025 c-2.907,1.688-4.345,5.119-4.855,6.882c-0.509-1.763-1.958-5.194-4.855-6.882l-1.074,0.03c-0.924-0.929-1.508-1.798-3.431-1.398 c-0.869-0.32-1.274-1.094-3.037-0.529c-0.724-0.22-1.388-0.694-2.173-0.669L35.522,10c-0.4,0-0.849,0.15-1.349,0.549 c-1.249-0.459-2.447-0.609-3.496,0.34c-1.648-0.2-2.198,0.25-2.597,0.749c-0.35,0-2.697-0.35-3.746,1.199 c-2.697-0.3-3.546,1.598-2.597,3.346c-0.549,0.799-1.149,1.648,0.15,3.246c-0.449,0.899-0.15,1.898,0.899,3.047 c-0.3,1.299,0.25,2.148,1.249,2.847c-0.2,1.748,1.598,2.747,2.098,3.096c0.2,0.999,0.599,1.948,2.647,2.447 c0.35,1.498,1.548,1.748,2.747,2.048c-3.946,2.247-7.292,5.194-7.292,12.436l-0.574,0.999c-4.49,2.697-8.53,11.337-2.217,18.379 c0.414,2.198,1.104,3.796,1.723,5.544c0.929,7.042,6.942,10.338,8.54,10.738c2.312,1.748,4.8,3.396,8.156,4.545 C43.024,88.751,46.455,90,49.901,90h0.305c3.396,0,6.842-1.249,9.989-4.445c3.346-1.149,5.843-2.797,8.141-4.545 c1.598-0.4,7.641-3.696,8.54-10.738c0.599-1.748,1.299-3.296,1.698-5.494C84.867,57.736,80.821,49.096,76.326,46.399z M72.536,45.41 c-0.235,2.947-15.433-10.139-12.811-10.588C66.842,33.673,72.775,37.819,72.536,45.41z M55.29,15.194 c0.1,0.649,0.25,1.049,0.449,1.149c0.849-0.899,1.548-1.798,2.647-2.697c0,0.499-0.25,1.049,0.4,1.498 c0.599-0.799,1.398-1.498,2.447-2.098c-0.499,0.899-0.1,1.149,0.2,1.498c0.799-0.649,1.548-1.348,3.047-1.898 c-0.4,0.45-0.949,0.949-0.35,1.498c0.849-0.499,1.648-0.999,3.646-1.398c-0.449,0.499-1.348,0.949-0.799,1.448 c0.999-0.4,2.148-0.649,3.446-0.849c-0.614,0.499-1.114,0.999-0.614,1.349c1.104-0.35,2.627-0.799,4.115-0.4l-0.939,0.949 c-0.11,0.1,2.203,0.1,3.721,0.1c-0.549,0.799-1.119,1.548-1.448,2.847c0.15,0.15,0.909,0.1,1.623,0 c-0.734,1.548-1.998,1.948-2.297,2.597c0.44,0.3,1.064,0.25,1.738,0c-0.524,1.099-1.628,1.848-2.497,2.697 c0.215,0.15,0.604,0.25,1.513,0.1c-0.804,0.899-1.773,1.648-2.922,2.347c0.2,0.25,0.899,0.25,1.548,0.25 c-1.049,0.999-2.387,1.548-3.646,2.198c0.629,0.4,1.079,0.3,1.558,0.3c-0.889,0.749-2.407,1.099-3.806,1.548 c0.26,0.449,0.529,0.549,1.099,0.649c-1.488,0.799-3.626,0.45-4.225,0.849c0.15,0.4,0.559,0.699,1.049,0.899 c-2.392,0.15-8.95-0.05-10.209-5.044c2.328-2.555,6.48-5.514,13.449-9.173c-5.581,1.959-10.66,4.542-14.892,7.974 C48.997,23.934,52.693,17.691,55.29,15.194z M50.281,32.799h0.075c3.746-0.04,8.44,2.777,8.391,5.424 c-0.05,2.337-3.296,4.23-8.44,4.195c-5.009-0.06-8.381-2.377-8.366-4.645C41.94,35.906,46.025,32.689,50.281,32.799z M30.668,30.727 c0.599-0.1,0.849-0.2,1.149-0.649c-1.398-0.449-2.947-0.799-3.796-1.548c0.449,0,0.899,0.1,1.548-0.35 c-1.249-0.664-2.597-1.199-3.646-2.212c0.699-0.02,1.398-0.015,1.598-0.25c-1.149-0.699-2.098-1.483-2.897-2.347 c0.949,0.125,1.299,0.025,1.548-0.125c-0.849-0.899-1.948-1.648-2.497-2.697c0.699,0.25,1.299,0.32,1.748,0 c-0.3-0.649-1.548-1.049-2.297-2.547c0.714,0.05,1.463,0.15,1.613,0c-0.325-1.349-0.899-2.098-1.448-2.847 c1.538-0.015,3.836,0.01,3.736-0.115l-0.949-0.949c1.498-0.4,3.037,0.05,4.185,0.449c0.499-0.39-0.04-0.849-0.639-1.348 c1.249,0.15,2.397,0.449,3.451,0.854c0.549-0.499-0.35-0.999-0.799-1.498c1.948,0.4,2.797,0.899,3.596,1.398 c0.599-0.549,0-1.049-0.4-1.548c1.448,0.549,2.198,1.249,2.997,1.998c0.27-0.4,0.684-0.649,0.185-1.498 c1.049,0.599,1.833,1.299,2.417,2.098c0.649-0.4,0.39-0.999,0.39-1.498c1.089,0.899,1.778,1.798,2.627,2.697 c0.165-0.1,0.315-0.549,0.45-1.199c2.587,2.447,6.258,8.69,0.939,11.187c-4.525-3.696-9.929-6.393-15.922-8.391l-0.135-0.05 c7.691,3.896,12.186,7.042,14.634,9.739c-1.249,4.994-7.841,5.194-10.239,5.044c0.499-0.2,0.899-0.499,1.049-0.899 C34.264,31.176,32.166,31.576,30.668,30.727z M40.042,34.572l0.005,0.05c2.622,0.45-12.576,13.535-12.811,10.588 C26.997,37.569,32.925,33.424,40.042,34.572z M24.09,63.74v0.05c-3.696-2.947-4.88-11.537,1.963-15.383 C30.183,47.308,27.446,65.238,24.09,63.74z M38.489,79.042c-2.083,1.239-7.142,0.729-10.738-4.355 c-2.427-4.275-2.108-8.62-0.41-9.889c2.542-1.533,6.478,0.529,9.504,3.995l-0.005-0.005C39.488,71.92,40.686,77.419,38.489,79.042z M34.393,60.443c-3.821-2.497-4.51-8.091-1.538-12.536c2.972-4.395,8.48-5.993,12.301-3.546l-0.005,0.05 c3.796,2.497,4.495,8.091,1.548,12.486C43.723,61.342,38.214,62.94,34.393,60.443z M50.291,87.763 c-4.58,0.2-9.075-3.696-9.015-5.044c-0.07-1.978,5.579-3.526,9.255-3.436l0.01,0.04c3.696-0.15,8.675,1.199,8.69,2.947 C59.29,83.967,54.716,87.862,50.291,87.763z M59.685,68.284v0.1c0.05,4.595-4.045,8.391-9.14,8.391 c-5.094,0.05-9.245-3.696-9.275-8.341v-0.1c-0.025-4.645,4.085-8.391,9.18-8.44c5.094-0.05,9.24,3.696,9.27,8.341L59.685,68.284z M53.936,56.398c-2.972-4.395-2.282-9.989,1.538-12.486v0.05c3.826-2.497,9.335-0.899,12.306,3.546 c2.972,4.445,2.282,10.039-1.538,12.486C62.417,62.441,56.908,60.793,53.936,56.398z M72.625,74.927 c-3.946,5.404-9.299,5.604-11.287,4.105c-2.083-1.938-0.494-7.941,2.362-11.237v0.04c3.266-3.596,6.757-5.993,9.19-4.145 C74.523,65.288,75.492,71.331,72.625,74.927z M75.712,63.54c-3.361,1.448-6.093-16.481-1.963-15.383v0.05 C80.596,52.053,79.408,60.643,75.712,63.54z" fill="rgb(0, 0, 0)" style="fill: rgb(0, 0, 0);"></path></g><metadata xmlns:d="https://loading.io/stock/" class="ld ld-fade" style="transform-origin: 50px 50px 0px; animation-duration: 1s; animation-delay: -0.36s; animation-direction: normal;">
<d:name class="ld ld-fade" style="transform-origin: 50px 50px 0px; animation-duration: 1s; animation-delay: -0.32s; animation-direction: normal;">raspberrypi</d:name>
<d:tags class="ld ld-fade" style="transform-origin: 50px 50px 0px; animation-duration: 1s; animation-delay: -0.28s; animation-direction: normal;">raspberrypi,brand</d:tags>
<d:license class="ld ld-fade" style="transform-origin: 50px 50px 0px; animation-duration: 1s; animation-delay: -0.24s; animation-direction: normal;">cc0</d:license>
<d:slug class="ld ld-fade" style="transform-origin: 50px 50px 0px; animation-duration: 1s; animation-delay: -0.2s; animation-direction: normal;">5j344k</d:slug>
</metadata></g></g></g></g><style type="text/css" class="ld ld-fade" style="transform-origin: 50px 50px 0px; animation-duration: 1s; animation-delay: -0.16s; animation-direction: normal;">path,ellipse,circle,rect,polygon,polyline,line { stroke-width: 0; }@keyframes ld-fade {
  0% {
    opacity: 1;
  }
  100% {
    opacity: 0;
  }
}
@-webkit-keyframes ld-fade {
  0% {
    opacity: 1;
  }
  100% {
    opacity: 0;
  }
}
.ld.ld-fade {
  -webkit-animation: ld-fade 1s infinite linear;
  animation: ld-fade 1s infinite linear;
}
</style></svg></svg>
